#!OML:ASF F:\VICON\USERDATA\INSTALL\rory3\rory3.ASF
:FULLY-SPECIFIED
:DEGREES
551
root -11.0706 17.9824 6.40567 1.11932 71.8168 -0.302363
lowerback 13.8668 2.84907 5.47802
upperback -0.0276745 4.69081 -0.0134255
thorax -7.36915 2.08994 -4.02359
lowerneck -22.6147 2.66261 -7.89441
upperneck 35.6219 8.15794 0.618558
head 16.259 2.66427 3.34894
rclavicle -6.36111e-015 2.78299e-014
rhumerus -36.2966 36.2452 -99.0041
rradius 80.8383
rwrist 17.207
rhand -21.8315 14.9874
rfingers 7.12502
rthumb 4.57147 -14.9432
lclavicle -6.36111e-015 2.78299e-014
lhumerus -37.7587 -32.6171 101.014
lradius 80.0512
lwrist 19.7489
lhand -21.2264 28.4493
lfingers 7.12502
lthumb 5.15572 58.3665
rfemur -4.43107 -18.281 18.244
rtibia 25.2867
rfoot -14.5396 -26.0019
rtoes 6.02241
lfemur -15.8616 2.5167 -11.1535
ltibia 20.3912
lfoot -11.1815 22.7901
ltoes 2.86322
552
root -11.016 17.9784 6.35929 2.77173 72.4353 1.09035
lowerback 13.4588 3.01773 4.77168
upperback -0.121453 4.77713 -0.0391185
thorax -7.28494 2.15847 -3.6464
lowerneck -22.7128 2.46679 -8.15117
upperneck 35.7248 7.90071 0.867918
head 16.3209 2.5561 3.46016
rclavicle 2.47984e-014 1.86858e-014
rhumerus -36.3099 36.3715 -98.9264
rradius 80.8621
rwrist 17.103
rhand -21.3533 15.1301
rfingers 7.12502
rthumb 5.03319 -14.7901
lclavicle 2.47984e-014 1.86858e-014
lhumerus -37.6917 -32.6363 101.139
lradius 79.9186
lwrist 19.2327
lhand -21.6035 28.0955
lfingers 7.12502
lthumb 4.79159 58.0213
rfemur -4.65678 -18.2728 17.6793
rtibia 25.3943
rfoot -14.3245 -26.7115
rtoes 5.02591
lfemur -15.9481 2.25511 -11.6784
ltibia 19.904
lfoot -11.0518 24.1104
ltoes 2.89581
553
root -10.9491 17.964 6.32375 -0.0904603 72.8538 -1.4925
lowerback 13.6212 3.14769 5.1705
upperback -0.0034916 5.0472 0.296318
thorax -7.2228 2.28739 -3.56837
lowerneck -22.7259 2.26182 -8.38152
upperneck 35.6972 7.61747 1.04928
head 16.3065 2.43833 3.52311
rclavicle 3.97072e-014 -1.66979e-014
rhumerus -36.2571 36.4007 -98.811
rradius 80.8884
rwrist 17.1467
rhand -20.9852 15.0588
rfingers 7.12502
rthumb 5.38862 -14.8527
lclavicle 3.97072e-014 -1.66979e-014
lhumerus -37.6118 -32.7182 101.173
lradius 79.8942
lwrist 18.9503
lhand -21.5982 27.8378
lfingers 7.12502
lthumb 4.79675 57.7635
rfemur -3.93778 -17.7582 18.2729
rtibia 25.3919
rfoot -14.5619 -27.5877
rtoes 5.30313
lfemur -15.1694 1.98156 -10.7691
ltibia 19.5404
lfoot -11.4027 25.134
ltoes 4.75526
554
root -10.8768 17.9396 6.27961 0.699797 73.3154 -0.906013
lowerback 13.1512 3.3779 4.7306
upperback -0.0560138 5.25697 0.296735
thorax -7.03381 2.41148 -3.32643
lowerneck -22.6343 2.04526 -8.53247
upperneck 35.5889 7.3137 1.10599
head 16.2419 2.3105 3.50769
rclavicle -2.00276e-014 5.1684e-015
rhumerus -36.2254 36.2564 -98.704
rradius 80.9308
rwrist 17.1766
rhand -20.7526 15.0725
rfingers 7.12502
rthumb 5.61326 -14.8332
lclavicle -2.00276e-014 5.1684e-015
lhumerus -37.5825 -32.7721 101.205
lradius 79.8823
lwrist 18.8686
lhand -21.3546 27.7042
lfingers 7.12502
lthumb 5.03195 57.6244
rfemur -3.90068 -17.7222 17.8774
rtibia 25.4247
rfoot -14.5695 -27.9332
rtoes 5.48951
lfemur -15.4467 3.8384 -11.5735
ltibia 19.2296
lfoot -4.96722 25.8889
ltoes -13.5079
555
root -10.8171 17.9342 6.24402 -0.0456125 73.6528 -1.61833
lowerback 13.1434 3.61478 4.4731
upperback -0.091055 5.54437 0.446047
thorax -7.08179 2.56101 -3.07734
lowerneck -22.4799 1.89041 -8.54424
upperneck 35.4475 7.10112 1.00139
head 16.1572 2.21824 3.41351
rclavicle 5.12864e-014 -7.95139e-016
rhumerus -36.2505 36.2421 -98.6897
rradius 80.9961
rwrist 16.7908
rhand -20.5352 15.2126
rfingers 7.12502
rthumb 5.82306 -14.6873
lclavicle 5.12864e-014 -7.95139e-016
lhumerus -37.5976 -32.7295 101.219
lradius 79.8779
lwrist 18.8296
lhand -20.8565 27.0786
lfingers 7.12502
lthumb 5.51289 56.9869
rfemur -3.53204 -17.4438 17.8864
rtibia 25.3836
rfoot -14.2742 -28.4059
rtoes 4.23417
lfemur -14.8199 2.81251 -11.0512
ltibia 19.0524
lfoot -12.1401 26.0158
ltoes 9.21017
